<?xml version="1.0" encoding="UTF-8" standalone="no"?>
<!-- Created with Inkscape (http://www.inkscape.org/) -->

<svg
   version="1.1"
   id="svg1"
   width="31.359985"
   height="30.239868"
   viewBox="0 0 31.359985 30.239868"
   sodipodi:docname="cpv2020_pres_res_nay.pdf"
   xmlns:inkscape="http://www.inkscape.org/namespaces/inkscape"
   xmlns:sodipodi="http://sodipodi.sourceforge.net/DTD/sodipodi-0.dtd"
   xmlns="http://www.w3.org/2000/svg"
   xmlns:svg="http://www.w3.org/2000/svg">
  <defs
     id="defs1" />
  <sodipodi:namedview
     id="namedview1"
     pagecolor="#ffffff"
     bordercolor="#000000"
     borderopacity="0.25"
     inkscape:showpageshadow="2"
     inkscape:pageopacity="0.0"
     inkscape:pagecheckerboard="0"
     inkscape:deskcolor="#d1d1d1" />
  <g
     id="g1"
     inkscape:groupmode="layer"
     inkscape:label="3"
     transform="translate(-701.76001,-681.76001)">
    <g
       id="g177">
      <path
         id="path178"
         d="m 546.6,16.56 c -0.14,0.274 -0.42,0.411 -0.7,0.549 0,0 0,0 0,0 0,0 0,0 0,0 0,0 0,0 0,0 -0.7,0 -1.68,0.137 -2.52,0.274 0,0 -0.14,0.137 -0.14,0.137 0,0 0,0 0,0 0,0 0,0 0,0 0,0 0,0 -0.14,0 -0.42,0 -0.7,-0.411 -0.7,-0.823 0,-0.274 0.14,-0.411 0.42,-0.548 0,0 0,0 0,0 0,0 0,0 0,0 0.84,-0.549 2.94,-0.549 3.22,-0.549 0,0 0,0 0,0 0,0 0,0 0,0 0.42,0.137 0.56,0.549 0.56,0.96 z"
         style="fill:#ffffff;fill-opacity:1;fill-rule:evenodd;stroke:none"
         transform="matrix(1.3333333,0,0,-1.3333333,0,720)" />
    </g>
    <g
       id="g178">
      <path
         id="path179"
         d="m 549.84,14.668 c 0,0 0,0 0,0 0,0 0,0 0,0 0,0 0,0 0,0 0,0.136 0,0.136 0,0.272 -0.96,4.077 -0.96,4.077 -0.96,4.077 -0.13,1.496 -1.37,2.583 -2.87,2.583 -1.51,0 -2.74,-0.951 -3.01,-2.311 0,0 0,0 0,0 -0.41,-1.767 -0.41,-1.767 -0.41,-1.767 0.13,0.136 0.41,0.272 0.54,0.272 0.14,0 0.14,0 0.28,-0.136 0,0 0,0 0,0 0,0 0,0 0,0 0,0 0,0 0,0 0,0 0.14,0 0.14,0 0.13,1.359 0.13,1.359 0.13,1.359 0.69,-0.136 0.69,-0.136 0.69,-0.136 0.13,0.68 0.13,0.68 0.13,0.68 2.47,-0.272 2.47,-0.272 2.47,-0.272 -0.28,-2.446 -0.28,-2.446 -0.28,-2.446 0,-0.136 0.14,-0.272 0.14,-0.544 0,-0.544 -0.41,-0.952 -0.96,-0.952 -0.14,0 -0.14,0 -0.27,0 0,0 0,0 0,0 0,0 -1.23,0 -2.33,0.408 -1.23,-4.622 -1.23,-4.622 -1.23,-4.622 1.78,0 1.78,0 1.78,0 0,-3.9415 0,-3.9415 0,-3.9415 0,0 0,0 0,0 0,0 0,0 0,0 0,-0.5437 0.41,-0.9514 0.96,-0.9514 0.54,0 0.95,0.4077 0.95,0.9514 0,0 0,0 0,0 0,0 0,0 0,0 0,3.9415 0,3.9415 0,3.9415 0.42,0 0.42,0 0.42,0 0,-3.9415 0,-3.9415 0,-3.9415 0,-0.5437 0.41,-0.9514 0.95,-0.9514 0.55,0 0.96,0.4077 0.96,0.9514 0,3.9415 0,3.9415 0,3.9415 1.78,0 1.78,0 1.78,0 -0.68,2.719 -0.68,2.719 -0.68,2.719 0.41,0 0.68,0.408 0.68,0.816 z"
         style="fill:#ffffff;fill-opacity:1;fill-rule:evenodd;stroke:none"
         transform="matrix(1.3333333,0,0,-1.3333333,0,720)" />
    </g>
    <g
       id="g179">
      <path
         id="path180"
         d="m 545.86,17.4 c 0.14,1.056 0.14,1.056 0.14,1.056 -2.03,0.264 -2.03,0.264 -2.03,0.264 -0.13,-1.056 -0.13,-1.056 -0.13,-1.056 0.54,-0.132 1.21,-0.264 2.02,-0.264 z"
         style="fill:#ffffff;fill-opacity:1;fill-rule:evenodd;stroke:none"
         transform="matrix(1.3333333,0,0,-1.3333333,0,720)" />
    </g>
    <g
       id="g180">
      <path
         id="path181"
         d="m 546.14,17.183 c 0.15,0 0.15,-0.143 0.29,-0.143 0.29,1.995 0.29,1.995 0.29,1.995 -2.16,0.285 -2.16,0.285 -2.16,0.285 0,-0.427 0,-0.427 0,-0.427 1.73,-0.143 1.73,-0.143 1.73,-0.143 z"
         style="fill:#ffffff;fill-opacity:1;fill-rule:evenodd;stroke:none"
         transform="matrix(1.3333333,0,0,-1.3333333,0,720)" />
    </g>
    <g
       id="g181">
      <path
         id="path182"
         d="m 548.09,24.503 c -0.14,1.084 -1.1,1.897 -2.06,1.897 -0.68,0 -1.23,-0.271 -1.64,-0.813 0.68,-0.813 1.78,-1.355 3.02,-1.355 0.27,0 0.41,0 0.68,0 0,-0.271 0,-0.271 0,-0.271 -0.27,0 -0.41,0 -0.68,0 -1.24,0 -2.47,0.542 -3.16,1.491 -0.27,-0.407 -0.41,-0.813 -0.41,-1.22 0,-1.084 0.96,-2.032 2.19,-2.032 0.69,0 1.38,0.407 1.65,0.948 0.14,0 0.27,0 0.27,0 0.42,0 0.69,0.271 0.69,0.678 0,0.406 -0.27,0.677 -0.55,0.677 z"
         style="fill:#ffffff;fill-opacity:1;fill-rule:evenodd;stroke:none"
         transform="matrix(1.3333333,0,0,-1.3333333,0,720)" />
    </g>
    <g
       id="g182">
      <path
         id="path183"
         d="m 542.74,25.793 c 0,0 0,0 0,0 0,0 0,0 0,0 -0.13,0 -0.13,0 -0.13,0 -0.14,1.101 -0.96,1.927 -2.06,1.927 -1.24,0 -1.92,-0.826 -2.2,-1.927 -0.13,0 -0.13,0 -0.13,0 -0.14,0 -0.14,0 -0.14,-0.138 0,-0.137 0,-0.137 0.14,-0.137 0.13,0 0.13,0 0.13,0 0.14,0 0.14,0 0.14,0 0,-0.138 0,-0.276 0,-0.413 0,-1.101 0.82,-2.065 2.06,-2.065 1.1,0 1.92,0.964 1.92,2.065 0,0.137 0,0.275 0,0.413 0.14,0 0.14,0 0.14,0 0.13,0 0.13,0 0.13,0 0,0 0,0 0,0 0,0 0,0 0,0 0.14,0 0.14,0 0.14,0.137 0,0.138 0,0.138 -0.14,0.138 z"
         style="fill:#ffffff;fill-opacity:1;fill-rule:evenodd;stroke:none"
         transform="matrix(1.3333333,0,0,-1.3333333,0,720)" />
    </g>
    <g
       id="g183">
      <path
         id="path184"
         d="m 530.4,26.8 c 0,0 0,0 0,0 -0.28,0 -0.28,0 -0.28,0 0,-0.14 0,-0.14 0,-0.14 0,0 0,0 0,0 0,0 0,0 0,0 0,0 0,0 0,0 0,0 0,0 0,0 0,-0.14 0,-0.14 -0.14,-0.14 0,0 0,0 -0.14,0.14 0,0 0,0 0,0 0,0 0,0 0,0 0,0 0,0 0,0 0,0 0,0 0,0 0,0.14 0,0.14 0,0.14 -0.14,0 -0.14,0 -0.14,0 0,0 0,0 0,0 0,0 -0.14,0 -0.14,0.14 0,0 0.14,0.14 0.14,0.14 0,0 0,0 0,0 0.14,0 0.14,0 0.14,0 0,0.14 0,0.14 0,0.14 0,0 0,0 0,0 0,0 0,0 0,0 0,0 0,0 0,0 0,0 0,0 0,0 0,0 0.14,0.14 0.14,0.14 0.14,0 0.14,-0.14 0.14,-0.14 0,0 0,0 0,0 0,0 0,0 0,0 0,0 0,0 0,0 0,0 0,0 0,0 0,-0.14 0,-0.14 0,-0.14 0.28,0 0.28,0 0.28,0 0,0 0,0 0,0 0,0 0,-0.14 0,-0.14 z"
         style="fill:#ffffff;fill-opacity:1;fill-rule:evenodd;stroke:none"
         transform="matrix(1.3333333,0,0,-1.3333333,0,720)" />
    </g>
    <g
       id="g184">
      <path
         id="path185"
         d="m 531.4,25.949 c 0.54,1.09 0.54,1.09 0.54,1.09 -0.41,0.409 -1.09,0.681 -1.91,0.681 -0.68,0 -1.36,-0.272 -1.91,-0.681 0.68,-1.09 0.68,-1.09 0.68,-1.09 -0.41,-0.408 -0.68,-0.817 -0.68,-1.362 0,-1.09 0.96,-1.907 1.91,-1.907 1.09,0 2.05,0.817 2.05,1.907 0,0.545 -0.27,0.954 -0.68,1.362 z m -1.37,0.273 c -0.27,0 -0.68,-0.137 -0.95,-0.273 -0.55,1.09 -0.55,1.09 -0.55,1.09 0.41,0.272 0.96,0.409 1.5,0.409 0.68,0 1.23,-0.137 1.64,-0.409 -0.55,-1.09 -0.55,-1.09 -0.55,-1.09 -0.27,0.136 -0.68,0.273 -1.09,0.273 z"
         style="fill:#ffffff;fill-opacity:1;fill-rule:evenodd;stroke:none"
         transform="matrix(1.3333333,0,0,-1.3333333,0,720)" />
    </g>
    <g
       id="g185">
      <path
         id="path186"
         d="m 539.04,17.396 c 0,1.51 -0.96,2.746 -2.2,3.295 0,0 0,0 0,0 0,0.137 -0.14,0.274 -0.28,0.274 0,0 0,0 0,0 0,0.138 0,0.138 0,0.138 0,0 0,0 0,0 -0.55,0.137 -0.55,0.137 -0.55,0.137 0,0 0,0 -0.14,0 -0.14,0 -0.27,-0.137 -0.27,-0.412 0,-0.274 0,-0.274 0,-0.274 -0.56,0 -0.56,0 -0.56,0 0,0.274 0,0.274 0,0.274 0,0.275 -0.13,0.412 -0.27,0.412 -0.14,0 -0.14,0 -0.14,0 -0.55,-0.137 -0.55,-0.137 -0.55,-0.137 0,0 0,0 0,0 -0.14,-0.138 -0.14,-0.138 -0.14,-0.138 0,0 0,0 0,0 0,0 -0.14,-0.137 -0.14,-0.274 0,0 0,0 0,0 -1.24,-0.549 -2.2,-1.785 -2.2,-3.295 0,0 0,0 0,0 0,-3.021 0,-3.021 0,-3.021 0,-0.412 0.28,-0.824 0.69,-0.824 0,-1.098 0,-1.098 0,-1.098 0.14,0 0.14,0 0.14,0 0,-5.2173 0,-5.2173 0,-5.2173 0,-0.6864 0.55,-1.2356 1.24,-1.2356 0.69,0 1.24,0.5492 1.24,1.2356 0,5.2173 0,5.2173 0,5.2173 0.82,0 0.82,0 0.82,0 0,-5.2173 0,-5.2173 0,-5.2173 0,-0.6864 0.55,-1.2356 1.24,-1.2356 0.69,0 1.24,0.5492 1.24,1.2356 0,5.2173 0,5.2173 0,5.2173 0.14,0 0.14,0 0.14,0 0,1.098 0,1.098 0,1.098 0.41,0 0.69,0.412 0.69,0.824 0,3.021 0,3.021 0,3.021 z m -0.28,-3.021 c -0.68,0 -0.68,0 -0.68,0 0,-1.785 0,-1.785 0,-1.785 -5.52,0 -5.52,0 -5.52,0 0,1.785 0,1.785 0,1.785 -0.68,0 -0.68,0 -0.68,0 0,3.021 0,3.021 0,3.021 0,1.373 0.82,2.608 2.06,3.158 0,0.137 0,0.137 0,0.137 0,0.137 0,0.137 0.14,0.137 0,0 0,0 0,0 0,0 0,0 0,0 0,0 0,0 0,0 0,0 0,0 0,0 0.55,0.137 0.55,0.137 0.55,0.137 0,0 0,0 0,0 0,0 0,0 0,0 0,0 0,0 0,0 0,0 0.14,0 0.14,0 0,0 0,0 0,0 0,-0.411 0,-0.411 0,-0.411 -0.69,0 -0.69,0 -0.69,0 0,0 -0.14,0 -0.14,-0.138 0,0 0,0 0,0 0,-7.826 0,-7.826 0,-7.826 0.14,0 0.14,0 0.14,0 0,7.552 0,7.552 0,7.552 0,0.274 0,0.274 0,0.274 0,0 0,0 0,0 0,0 0,0 0,0 2.34,0 2.34,0 2.34,0 0,0 0.14,0 0.14,0 0,0.138 -0.14,0.138 -0.14,0.138 -0.69,0 -0.69,0 -0.69,0 0,0.411 0,0.411 0,0.411 0,0 0.14,0 0.14,0 0,0 0,0 0,0 0,0 0,0 0,0 0,0 0,0 0,0 0,0 0,0 0.14,0 0.55,-0.137 0.55,-0.137 0.55,-0.137 0,0 0,0 0,0 0,0 0,0 0,0 0,0 0,0 0,0 0,0 0,0 0,0 0,0 0.14,0 0.14,-0.137 0,-0.137 0,-0.137 0,-0.137 1.24,-0.55 2.06,-1.785 2.06,-3.158 z"
         style="fill:#ffffff;fill-opacity:1;fill-rule:evenodd;stroke:none"
         transform="matrix(1.3333333,0,0,-1.3333333,0,720)" />
    </g>
    <g
       id="g186">
      <path
         id="path187"
         d="m 537.24,18.48 c 0,0 -0.14,0 -0.14,0 -0.7,0 -0.7,0 -0.7,0 0,0 0,0 0,0 0,0 0,0 0,0 0,0.12 0,0.12 0,0.12 0.7,0 0.7,0 0.7,0 0,0 0.14,0 0.14,-0.12 z"
         style="fill:#ffffff;fill-opacity:1;fill-rule:evenodd;stroke:none"
         transform="matrix(1.3333333,0,0,-1.3333333,0,720)" />
    </g>
    <g
       id="g187">
      <path
         id="path188"
         d="m 534.36,19.74 c 0,0.099 0.11,0.18 0.24,0.18 0.13,0 0.24,-0.081 0.24,-0.18 0,-0.099 -0.11,-0.18 -0.24,-0.18 -0.13,0 -0.24,0.081 -0.24,0.18 z"
         style="fill:#ffffff;fill-opacity:1;fill-rule:evenodd;stroke:none"
         transform="matrix(1.3333333,0,0,-1.3333333,0,720)" />
    </g>
    <g
       id="g188">
      <path
         id="path189"
         d="m 535.8,19.74 c 0,0.099 0.08,0.18 0.18,0.18 0.1,0 0.18,-0.081 0.18,-0.18 0,-0.099 -0.08,-0.18 -0.18,-0.18 -0.1,0 -0.18,0.081 -0.18,0.18 z"
         style="fill:#ffffff;fill-opacity:1;fill-rule:evenodd;stroke:none"
         transform="matrix(1.3333333,0,0,-1.3333333,0,720)" />
    </g>
    <g
       id="g189">
      <path
         id="path190"
         d="m 534.36,17.82 c 0,0.099 0.11,0.18 0.24,0.18 0.13,0 0.24,-0.081 0.24,-0.18 0,-0.099 -0.11,-0.18 -0.24,-0.18 -0.13,0 -0.24,0.081 -0.24,0.18 z"
         style="fill:#ffffff;fill-opacity:1;fill-rule:evenodd;stroke:none"
         transform="matrix(1.3333333,0,0,-1.3333333,0,720)" />
    </g>
    <g
       id="g190">
      <path
         id="path191"
         d="m 535.8,17.82 c 0,0.099 0.08,0.18 0.18,0.18 0.1,0 0.18,-0.081 0.18,-0.18 0,-0.099 -0.08,-0.18 -0.18,-0.18 -0.1,0 -0.18,0.081 -0.18,0.18 z"
         style="fill:#ffffff;fill-opacity:1;fill-rule:evenodd;stroke:none"
         transform="matrix(1.3333333,0,0,-1.3333333,0,720)" />
    </g>
    <g
       id="g191">
      <path
         id="path192"
         d="m 534.36,16.08 c 0,0.133 0.11,0.24 0.24,0.24 0.13,0 0.24,-0.107 0.24,-0.24 0,-0.132 -0.11,-0.24 -0.24,-0.24 -0.13,0 -0.24,0.108 -0.24,0.24 z"
         style="fill:#ffffff;fill-opacity:1;fill-rule:evenodd;stroke:none"
         transform="matrix(1.3333333,0,0,-1.3333333,0,720)" />
    </g>
    <g
       id="g192">
      <path
         id="path193"
         d="m 535.8,16.08 c 0,0.133 0.08,0.24 0.18,0.24 0.1,0 0.18,-0.107 0.18,-0.24 0,-0.132 -0.08,-0.24 -0.18,-0.24 -0.1,0 -0.18,0.108 -0.18,0.24 z"
         style="fill:#ffffff;fill-opacity:1;fill-rule:evenodd;stroke:none"
         transform="matrix(1.3333333,0,0,-1.3333333,0,720)" />
    </g>
    <g
       id="g193">
      <path
         id="path194"
         d="m 534.36,14.34 c 0,0.099 0.11,0.18 0.24,0.18 0.13,0 0.24,-0.081 0.24,-0.18 0,-0.099 -0.11,-0.18 -0.24,-0.18 -0.13,0 -0.24,0.081 -0.24,0.18 z"
         style="fill:#ffffff;fill-opacity:1;fill-rule:evenodd;stroke:none"
         transform="matrix(1.3333333,0,0,-1.3333333,0,720)" />
    </g>
    <g
       id="g194">
      <path
         id="path195"
         d="m 535.8,14.34 c 0,0.099 0.08,0.18 0.18,0.18 0.1,0 0.18,-0.081 0.18,-0.18 0,-0.099 -0.08,-0.18 -0.18,-0.18 -0.1,0 -0.18,0.081 -0.18,0.18 z"
         style="fill:#ffffff;fill-opacity:1;fill-rule:evenodd;stroke:none"
         transform="matrix(1.3333333,0,0,-1.3333333,0,720)" />
    </g>
    <g
       id="g195">
      <path
         id="path196"
         d="m 537.48,28.002 c 0,0 0,0 0,0 0,0.136 0,0.136 0,0.136 0,0.271 -0.13,0.542 -0.54,0.542 0,0 -3.36,0 -3.36,0 -0.27,0 -0.54,-0.271 -0.54,-0.542 0,0 0,0 0,0 0,0 0,0 0,0 0.13,0 0.13,0 0.13,0 0,0 0,0 0,-0.136 0.27,-2.575 0.27,-2.575 0.27,-2.575 0,-1.22 0,-1.22 0,-1.22 0,0 0,0 0,0 -0.13,-0.136 -0.13,-0.407 -0.13,-0.814 0,-1.084 0.94,-2.033 2.02,-2.033 1.07,0 2.02,0.949 2.02,2.033 0,0.407 -0.14,0.678 -0.27,0.814 0,1.22 0,1.22 0,1.22 z m -4.17,0.136 c 0,0.135 0.13,0.271 0.27,0.271 3.36,0 3.36,0 3.36,0 0.27,0 0.41,-0.136 0.41,-0.271 0,0 -0.41,-2.576 -0.41,-2.576 -3.23,0 -3.23,0 -3.23,0 z m 3.63,-3.796 c -3.23,0 -3.23,0 -3.23,0 0,0.136 0,0.136 0,0.136 0,0.813 0,0.813 0,0.813 3.23,0 3.23,0 3.23,0 0,-0.813 0,-0.813 0,-0.813 z"
         style="fill:#ffffff;fill-opacity:1;fill-rule:evenodd;stroke:none"
         transform="matrix(1.3333333,0,0,-1.3333333,0,720)" />
    </g>
    <g
       id="g196">
      <path
         id="path197"
         d="m 532.09,12.6 c -5.36,0 -5.36,0 -5.36,0 1.79,6.72 1.79,6.72 1.79,6.72 -1.38,0 -1.38,0 -1.38,0 0.28,0.823 0.28,0.823 0.28,0.823 0,0 0.27,1.234 1.51,1.783 1.1,-0.412 2.06,-0.137 2.34,0 0.96,-0.412 1.37,-1.372 1.51,-1.646 0,0 0.14,0.137 0.14,0.137 -0.28,0.823 -0.83,1.509 -1.65,1.783 -0.41,-0.137 -0.69,-0.274 -1.24,-0.274 -0.41,0 -0.82,0.137 -1.1,0.274 -0.96,-0.411 -1.65,-1.234 -1.79,-2.194 0,0 0,0 0,0 -0.27,-0.96 -0.27,-0.96 -0.27,-0.96 0.14,0 0.14,0 0.14,0 0.13,0 0.13,0 0.13,0 -0.55,-2.332 -0.55,-2.332 -0.55,-2.332 -0.13,-0.96 -0.13,-0.96 -0.13,-0.96 0,0 0,0 0,0 -0.14,0 -0.14,0 -0.14,-0.137 0,-0.274 0.41,-0.686 0.69,-0.686 0,0 0,0 0,0 -0.69,-2.605 -0.69,-2.605 -0.69,-2.605 1.79,0 1.79,0 1.79,0 0,-3.7031 0,-3.7031 0,-3.7031 0,0 0,0 0,0 0,0 0,0 0,0 0,-0.4115 0.41,-0.8229 0.96,-0.8229 0.41,0 0.82,0.4114 0.82,0.8229 0,0 0,0 0,0 0,0 0,0 0,0 0,3.7031 0,3.7031 0,3.7031 0.42,0 0.42,0 0.42,0 0,-3.7031 0,-3.7031 0,-3.7031 0,-0.4115 0.41,-0.8229 0.82,-0.8229 0.55,0 0.96,0.4114 0.96,0.8229 0,3.7031 0,3.7031 0,3.7031 0,0 0,0 0,0 z"
         style="fill:#ffffff;fill-opacity:1;fill-rule:evenodd;stroke:none"
         transform="matrix(1.3333333,0,0,-1.3333333,0,720)" />
    </g>
    <g
       id="g197">
      <path
         id="path198"
         d="m 541.65,10.803 c 1.24,4.915 1.24,4.915 1.24,4.915 0,0 0,0 0,0 -0.41,0.136 -0.69,0.546 -0.69,0.955 0,0.137 0,0.137 0,0.137 0,0 0,0 0,0 0.14,0.136 0.14,0.136 0.14,0.136 0,0 0,0 0,0 0.41,2.321 0.41,2.321 0.41,2.321 0,0 0,0.137 0,0.137 0.14,0 0.14,0 0.14,0 0,0 0,0 0,0 0.14,0.546 0.42,1.092 0.83,1.501 -0.69,1.092 -1.93,1.775 -3.17,1.775 -1.52,0 -2.76,-0.819 -3.31,-1.911 1.24,-0.683 2.07,-2.048 2.07,-3.55 0,0 0,0 0,0 0,-3.003 0,-3.003 0,-3.003 0,-0.546 -0.28,-0.955 -0.83,-0.955 0,-1.092 0,-1.092 0,-1.092 -0.14,0 -0.14,0 -0.14,0 0,-4.2324 0,-4.2324 0,-4.2324 C 538.48,7.8 538.62,7.8 538.89,7.8 c 0.69,0 1.25,0.5461 1.25,1.2287 0,5.8703 0,5.8703 0,5.8703 0,0 0,0 0,0 0,0.136 0.13,0.409 0.41,0.409 0.14,0 0.41,-0.273 0.41,-0.409 0,-0.137 0,-0.137 0,-0.137 0,-5.7333 0,-5.7333 0,-5.7333 0,-0.6826 0.55,-1.2287 1.24,-1.2287 0.69,0 1.24,0.5461 1.24,1.2287 0,1.7743 0,1.7743 0,1.7743 z"
         style="fill:#ffffff;fill-opacity:1;fill-rule:evenodd;stroke:none"
         transform="matrix(1.3333333,0,0,-1.3333333,0,720)" />
    </g>
  </g>
</svg>
