<?xml version="1.0" encoding="UTF-8" standalone="no"?>
<!-- Created with Inkscape (http://www.inkscape.org/) -->

<svg
   version="1.1"
   id="svg1"
   width="35.525711"
   height="31.839783"
   viewBox="0 0 35.525711 31.839783"
   sodipodi:docname="cpv2020_pres_res_nay.pdf"
   xmlns:inkscape="http://www.inkscape.org/namespaces/inkscape"
   xmlns:sodipodi="http://sodipodi.sourceforge.net/DTD/sodipodi-0.dtd"
   xmlns="http://www.w3.org/2000/svg"
   xmlns:svg="http://www.w3.org/2000/svg">
  <defs
     id="defs1" />
  <sodipodi:namedview
     id="namedview1"
     pagecolor="#ffffff"
     bordercolor="#000000"
     borderopacity="0.25"
     inkscape:showpageshadow="2"
     inkscape:pageopacity="0.0"
     inkscape:pagecheckerboard="0"
     inkscape:deskcolor="#d1d1d1" />
  <g
     id="g1"
     inkscape:groupmode="layer"
     inkscape:label="3"
     transform="translate(-228.95723,-681.44025)">
    <g
       id="g235">
      <g
         id="g231">
        <path
           id="path232"
           d="m 197.78,6.8712 c -1.02,0.4381 -2.09,0.8117 -3.21,1.1253 0.35,0.3922 0.56,0.908 0.56,1.4716 v 0.6099 h 0.01 v 3.232 0 5.293 c 0.46,0.119 0.83,0.361 1.1,0.672 0.29,0.324 0.45,0.718 0.51,1.125 0.05,0.397 -0.01,0.808 -0.17,1.177 -0.19,0.444 -0.54,0.834 -1.03,1.077 l -10.45,6.247 c -0.05,0.028 -0.09,0.022 -0.12,0 l -10.45,-6.247 c -0.49,-0.243 -0.84,-0.633 -1.03,-1.077 -0.16,-0.369 -0.22,-0.779 -0.17,-1.177 0.06,-0.407 0.22,-0.801 0.5,-1.125 0.28,-0.311 0.64,-0.553 1.11,-0.672 V 13.31 9.3764 c 0,-0.543 0.2,-1.042 0.52,-1.4286 -1.1,-0.2987 -2.16,-0.6497 -3.15,-1.0579 -0.49,-0.1994 -0.72,-0.7555 -0.52,-1.2423 0.2,-0.4868 0.75,-0.7208 1.24,-0.5205 1.23,0.5064 2.56,0.9231 3.99,1.2498 0,-0.0038 0,-0.0084 0,-0.0084 l 2.61,0.4914 c 0.06,0.0094 0.13,0.0207 0.19,0.0291 v 0.0065 l 1.37,0.2575 c 0.85,0.0889 1.39,0.6965 1.4,1.5119 v 4.5481 0.673 c -0.38,0.158 -0.65,0.539 -0.66,0.981 l -0.02,2.647 c -0.02,1.601 1.3,2.911 2.89,2.911 h 0.23 0.01 0.23 c 1.6,0 2.92,-1.31 2.9,-2.911 l -0.03,-2.647 c 0,-0.442 -0.27,-0.824 -0.66,-0.981 v -0.673 -0.801 0 -3.6572 c 0.02,-0.8155 0.55,-1.4221 1.41,-1.5119 l 1.98,-0.3746 V 6.8506 c 2.23,-0.353 4.29,-0.9306 6.17,-1.7348 0.12,-0.0515 0.25,-0.0758 0.37,-0.0758 0.37,0 0.72,0.2181 0.88,0.5795 0.2,0.4859 -0.03,1.0457 -0.51,1.2517 z M 185.04,21.088 c -1,0 -1.82,0.82 -1.82,1.831 0,1.011 0.82,1.831 1.82,1.831 1.01,0 1.82,-0.82 1.82,-1.831 0,-1.012 -0.81,-1.831 -1.82,-1.831 z M 188.1,9.7125 v 0.3645 h 0.01 v 3.348 c 0.14,0.111 0.27,0.245 0.37,0.395 0.17,0.266 0.28,0.588 0.28,0.936 0.01,0.892 0.03,1.789 0.03,2.681 0,0.962 -0.39,1.835 -1.03,2.469 -0.38,0.383 -0.85,0.678 -1.37,0.854 0.13,0.092 0.26,0.198 0.38,0.315 0.44,0.445 0.72,1.059 0.72,1.736 0,0.678 -0.28,1.292 -0.72,1.737 -0.44,0.446 -1.05,0.721 -1.73,0.721 -0.67,0 -1.28,-0.275 -1.72,-0.72 -0.44,-0.445 -0.72,-1.059 -0.72,-1.737 0,-0.677 0.28,-1.291 0.72,-1.736 0.11,-0.116 0.24,-0.221 0.38,-0.313 -0.53,-0.176 -1,-0.473 -1.39,-0.857 -0.63,-0.636 -1.02,-1.509 -1.02,-2.469 v -0.003 c 0,-0.893 0.02,-1.786 0.03,-2.679 0,-0.348 0.1,-0.671 0.28,-0.935 0.1,-0.151 0.23,-0.284 0.37,-0.396 V 9.6207 C 181.96,8.9598 181.33,8.9804 180.8,8.912 180.44,8.8746 180.12,8.8419 179.82,8.8063 V 8.8081 C 179.8,8.8053 179.78,8.8025 179.76,8.7997 179.28,8.7426 178.83,8.678 178.32,8.5769 178.2,8.5554 178.07,8.5338 177.94,8.5104 c -0.6,-0.0028 -0.86,0.6319 -0.86,1.0102 v 3.5854 6.221 l -0.01,0.042 c -0.04,1.009 -0.69,1.167 -1.31,1.323 -0.16,0.042 -0.16,0.17 0.01,0.278 l 9.27,5.547 9.27,-5.547 c 0.17,-0.108 0.17,-0.236 0.01,-0.278 -0.62,-0.156 -1.27,-0.314 -1.32,-1.323 v -0.042 -6.221 l -0.01,-3.4946 c 0,-0.3914 -0.28,-1.0598 -0.93,-1.0092 -1,0.22 -1.73,0.2893 -2.79,0.4016 -0.53,0.0683 -1.16,0.0477 -1.17,0.7087 z"
           style="fill:#ffffff;fill-opacity:1;fill-rule:evenodd;stroke:none"
           transform="matrix(1.3333333,0,0,-1.3333333,0,720)" />
      </g>
      <g
         id="g232">
        <path
           id="path233"
           d="m 185.04,14.28 c -0.19,-0.012 -0.36,-0.126 -0.36,-0.263 V 13.865 13.355 8.151 8.04 h 0.72 v 0.111 5.204 0.51 0.152 c 0,0.137 -0.17,0.251 -0.36,0.263 z"
           style="fill:#ffffff;fill-opacity:1;fill-rule:evenodd;stroke:none"
           transform="matrix(1.3333333,0,0,-1.3333333,0,720)" />
      </g>
    </g>
  </g>
</svg>
