<?xml version="1.0" encoding="UTF-8" standalone="no"?>
<!-- Created with Inkscape (http://www.inkscape.org/) -->

<svg
   version="1.1"
   id="svg1"
   width="25.919983"
   height="30.239868"
   viewBox="0 0 25.919983 30.239868"
   sodipodi:docname="cpv2020_pres_res_nay.pdf"
   xmlns:inkscape="http://www.inkscape.org/namespaces/inkscape"
   xmlns:sodipodi="http://sodipodi.sourceforge.net/DTD/sodipodi-0.dtd"
   xmlns="http://www.w3.org/2000/svg"
   xmlns:svg="http://www.w3.org/2000/svg">
  <defs
     id="defs1" />
  <sodipodi:namedview
     id="namedview1"
     pagecolor="#ffffff"
     bordercolor="#000000"
     borderopacity="0.25"
     inkscape:showpageshadow="2"
     inkscape:pageopacity="0.0"
     inkscape:pagecheckerboard="0"
     inkscape:deskcolor="#d1d1d1" />
  <g
     id="g1"
     inkscape:groupmode="layer"
     inkscape:label="3"
     transform="translate(-644.47998,-681.76001)">
    <g
       id="g169">
      <path
         id="path170"
         d="m 502.8,15.221 c 0,3.284 0,3.284 0,3.284 0,2.4 -1.88,4.295 -4.26,4.295 -2.38,0 -4.26,-1.895 -4.26,-4.295 0,0 0,0 0,0 0,-3.284 0,-3.284 0,-3.284 0,-0.505 0.25,-0.884 0.75,-1.01 -0.5,-6.8215 -0.5,-6.8215 -0.5,-6.8215 0.75,0 0.75,0 0.75,0 0,-0.7578 0.63,-1.3894 1.38,-1.3894 0.88,0 1.5,0.6316 1.5,1.3894 0,0 0,0 0,0 0.88,0 0.88,0 0.88,0 0,-0.7578 0.63,-1.3894 1.38,-1.3894 0.75,0 1.38,0.6316 1.38,1.3894 0,0 0,0 0,0 0.75,0 0.75,0 0.75,0 -0.38,6.8215 -0.38,6.8215 -0.38,6.8215 0.38,0.126 0.63,0.505 0.63,1.01 z"
         style="fill:#ffffff;fill-opacity:1;fill-rule:evenodd;stroke:none"
         transform="matrix(1.3333333,0,0,-1.3333333,0,720)" />
    </g>
    <g
       id="g170">
      <path
         id="path171"
         d="m 501.36,26.182 c 0.12,0.785 0.12,0.785 0.12,0.785 0,0 0,0 0,0 0,0 0,0.131 0,0.131 0,0.131 0.12,0.262 0.24,0.262 0.12,0 0.24,-0.131 0.24,-0.262 0,0 0,-0.131 -0.12,-0.131 0.24,-0.785 0.24,-0.785 0.24,-0.785 0,0 0,0 0,0 0,0 0,0 0,0 0,0 0,0 0,0 0,0 0,0 0,0 0,-0.131 -0.12,-0.262 -0.24,-0.262 -0.36,0 -0.36,0 -0.36,0 -0.12,0 -0.12,0.131 -0.12,0.262 z"
         style="fill:#ffffff;fill-opacity:1;fill-rule:evenodd;stroke:none"
         transform="matrix(1.3333333,0,0,-1.3333333,0,720)" />
    </g>
    <g
       id="g171">
      <path
         id="path172"
         d="m 502.2,27.927 c -0.13,0 -0.13,0 -0.13,0 -3.4,0.753 -3.4,0.753 -3.4,0.753 0,0 0,0 0,0 0,0 -0.13,0 -0.13,0 0,0 0,0 0,0 0,0 0,0 0,0 -3.53,-0.753 -3.53,-0.753 -3.53,-0.753 0,0 0,0 0,0 -0.13,0 -0.13,0 -0.13,-0.126 0,0 0,0 0.13,0 0,0 0,0 0,0 1.76,-0.377 1.76,-0.377 1.76,-0.377 -0.12,-0.251 -0.38,-0.377 -0.5,-0.628 0.38,0 0.38,0 0.38,0 -0.26,-0.376 -0.38,-0.753 -0.38,-1.256 0,-1.255 1.01,-2.26 2.27,-2.26 1.26,0 2.27,1.005 2.27,2.26 0,0.503 -0.12,0.88 -0.38,1.256 0.38,0 0.38,0 0.38,0 -0.12,0.251 -0.25,0.377 -0.5,0.628 1.89,0.377 1.89,0.377 1.89,0.377 0,0 0,0 0,0 z"
         style="fill:#ffffff;fill-opacity:1;fill-rule:evenodd;stroke:none"
         transform="matrix(1.3333333,0,0,-1.3333333,0,720)" />
    </g>
    <g
       id="g172">
      <path
         id="path173"
         d="m 485.4,25.44 c 0,1.259 1.02,2.28 2.28,2.28 1.26,0 2.28,-1.021 2.28,-2.28 0,-1.259 -1.02,-2.28 -2.28,-2.28 -1.26,0 -2.28,1.021 -2.28,2.28 z"
         style="fill:#ffffff;fill-opacity:1;fill-rule:evenodd;stroke:none"
         transform="matrix(1.3333333,0,0,-1.3333333,0,720)" />
    </g>
    <g
       id="g173">
      <path
         id="path174"
         d="m 488.27,17.1 c -0.12,0.255 -0.38,0.51 -0.63,0.51 0,0 0,0 0,0 0,0 0,0 0,0 0,0 -0.13,0 -0.13,0 -0.63,0.128 -1.77,0.255 -2.66,0.51 0,0 -0.12,0 -0.12,0 0,0 0,0 0,0 0,0 0,0 0,0 0,0 0,0 -0.13,0 -0.38,0 -0.76,-0.382 -0.76,-0.765 0,-0.255 0.13,-0.51 0.38,-0.765 0,0 0,0 0,0 0,0 0,0 0,0 1.01,-0.51 3.29,-0.51 3.42,-0.51 0,0 0,0 0,0 0.13,0 0.13,0 0.13,0 0.38,0.255 0.63,0.638 0.5,1.02 z"
         style="fill:#ffffff;fill-opacity:1;fill-rule:evenodd;stroke:none"
         transform="matrix(1.3333333,0,0,-1.3333333,0,720)" />
    </g>
    <g
       id="g174">
      <path
         id="path175"
         d="m 492,15.098 c 0,0 0,0 0,0 0,0 0,0 0,0 0,0 0,0 0,0 0,0.127 0,0.127 -0.13,0.253 -0.89,4.423 -0.89,4.423 -0.89,4.423 -0.25,1.642 -1.65,2.906 -3.3,2.906 -1.52,0 -2.8,-1.137 -3.18,-2.527 0,0 0,0 0,0 -0.5,-1.896 -0.5,-1.896 -0.5,-1.896 0.25,0.127 0.38,0.127 0.63,0.127 0.13,0 0.13,0 0.25,0 0,0 0,0 0,0 0,0 0,0 0,0 0,0 0,0 0,0 0.13,0 0.13,0 0.26,0 0.13,1.39 0.13,1.39 0.13,1.39 0.76,0 0.76,0 0.76,0 0,0.632 0,0.632 0,0.632 2.79,-0.38 2.79,-0.38 2.79,-0.38 -0.38,-2.653 -0.38,-2.653 -0.38,-2.653 0.13,-0.127 0.13,-0.253 0.13,-0.506 0,-0.505 -0.38,-1.011 -1.02,-1.011 -0.12,0 -0.12,0 -0.25,0 0,0 0,0 0,0 0,0 -1.4,0 -2.54,0.38 -1.4,-5.055 -1.4,-5.055 -1.4,-5.055 2.03,0 2.03,0 2.03,0 0,-4.17 0,-4.17 0,-4.17 0,0 0,0 0,0 0,0 0,0 0,0 0,-0.6318 0.51,-1.0109 1.02,-1.0109 0.63,0 1.02,0.3791 1.02,1.0109 0,0 0,0 0,0 0,0 0,0 0,0 0,4.17 0,4.17 0,4.17 0.5,0 0.5,0 0.5,0 0,-4.17 0,-4.17 0,-4.17 0,-0.6318 0.39,-1.0109 1.02,-1.0109 0.51,0 1.02,0.3791 1.02,1.0109 0,4.17 0,4.17 0,4.17 2.03,0 2.03,0 2.03,0 -0.76,3.033 -0.76,3.033 -0.76,3.033 0.38,0 0.76,0.379 0.76,0.884 z"
         style="fill:#ffffff;fill-opacity:1;fill-rule:evenodd;stroke:none"
         transform="matrix(1.3333333,0,0,-1.3333333,0,720)" />
    </g>
    <g
       id="g175">
      <path
         id="path176"
         d="m 487.55,18 c 0.13,1.2 0.13,1.2 0.13,1.2 -2.15,0.24 -2.15,0.24 -2.15,0.24 -0.13,-1.2 -0.13,-1.2 -0.13,-1.2 0.51,-0.12 1.39,-0.24 2.15,-0.24 z"
         style="fill:#ffffff;fill-opacity:1;fill-rule:evenodd;stroke:none"
         transform="matrix(1.3333333,0,0,-1.3333333,0,720)" />
    </g>
    <g
       id="g176">
      <path
         id="path177"
         d="m 487.76,17.887 c 0.13,0 0.26,-0.127 0.39,-0.127 0.25,2.027 0.25,2.027 0.25,2.027 -2.16,0.253 -2.16,0.253 -2.16,0.253 0,-0.38 0,-0.38 0,-0.38 1.78,-0.127 1.78,-0.127 1.78,-0.127 z"
         style="fill:#ffffff;fill-opacity:1;fill-rule:evenodd;stroke:none"
         transform="matrix(1.3333333,0,0,-1.3333333,0,720)" />
    </g>
  </g>
</svg>
