<?xml version="1.0" encoding="UTF-8" standalone="no"?>
<!-- Created with Inkscape (http://www.inkscape.org/) -->

<svg
   version="1.1"
   id="svg1"
   width="34.880005"
   height="30.23999"
   viewBox="0 0 34.880005 30.23999"
   sodipodi:docname="cpv2020_pres_res_nay.pdf"
   xmlns:inkscape="http://www.inkscape.org/namespaces/inkscape"
   xmlns:sodipodi="http://sodipodi.sourceforge.net/DTD/sodipodi-0.dtd"
   xmlns="http://www.w3.org/2000/svg"
   xmlns:svg="http://www.w3.org/2000/svg">
  <defs
     id="defs1" />
  <sodipodi:namedview
     id="namedview1"
     pagecolor="#ffffff"
     bordercolor="#000000"
     borderopacity="0.25"
     inkscape:showpageshadow="2"
     inkscape:pageopacity="0.0"
     inkscape:pagecheckerboard="0"
     inkscape:deskcolor="#d1d1d1" />
  <g
     id="g1"
     inkscape:groupmode="layer"
     inkscape:label="3"
     transform="translate(-951.19995,-681.76001)">
    <g
       id="g208">
      <path
         id="path209"
         d="m 720.96,10.76 c 0,0 0,0 0,0 0,0.14 -0.14,0.28 -0.29,0.28 -0.29,0 -0.43,-0.14 -0.43,-0.28 0,0 0,0 0,0 0,0 0,0 0,0 0,-4.7599 0,-4.7599 0,-4.7599 0.72,0 0.72,0 0.72,0 0,4.7599 0,4.7599 0,4.7599 z"
         style="fill:#ffffff;fill-opacity:1;fill-rule:evenodd;stroke:none"
         transform="matrix(1.3333333,0,0,-1.3333333,0,720)" />
    </g>
    <g
       id="g209">
      <path
         id="path210"
         d="m 732.48,6.0001 h 0.35999 v 2.88 H 732.48 Z"
         style="fill:#ffffff;fill-opacity:1;fill-rule:evenodd;stroke:none"
         transform="matrix(1.3333333,0,0,-1.3333333,0,720)" />
    </g>
    <g
       id="g210">
      <path
         id="path211"
         d="m 738.43,21.777 c -11.88,6.903 -11.88,6.903 -11.88,6.903 0,0 0,0 0,0 0,0 0,0 0,0 0,0 0,0 0,0 0,0 0,0 0,0 0,0 0,0 0,0 -12.02,-6.903 -12.02,-6.903 -12.02,-6.903 -0.56,-0.422 -1.13,-1.127 -1.13,-1.972 0,-1.268 0.99,-2.254 2.26,-2.254 0,-0.281 0,-0.281 0,-0.281 0,-9.1569 0,-9.1569 0,-9.1569 0,-1.2679 0.99,-1.9722 1.84,-2.1131 0.71,0 0.71,0 0.71,0 0,4.79 0,4.79 0,4.79 0,0 0,0 0,0 0,0.281 0,0.281 0,0.281 -0.29,0 -0.71,0.282 -0.71,0.705 0,2.254 0,2.254 0,2.254 0,0 0,0 0,0 0,1.69 1.41,2.958 3.11,2.958 1.56,0 2.97,-1.268 2.97,-2.958 0,-2.254 0,-2.254 0,-2.254 0,-0.423 -0.28,-0.705 -0.71,-0.705 0,-0.281 0,-0.281 0,-0.281 0,-4.79 0,-4.79 0,-4.79 1.98,0 1.98,0 1.98,0 0,3.5218 0,3.5218 0,3.5218 0,0 0,0 0,0 0,0.1409 0,0.1409 0,0.1409 -0.28,0 -0.56,0.2817 -0.56,0.5633 0,1.831 0,1.831 0,1.831 0,0 0,0 0,0 0,1.268 0.99,2.254 2.26,2.254 1.27,0 2.4,-0.986 2.4,-2.254 0,-1.831 0,-1.831 0,-1.831 0,-0.2816 -0.28,-0.5633 -0.56,-0.5633 0,-0.1409 0,-0.1409 0,-0.1409 0,-3.5218 0,-3.5218 0,-3.5218 2.69,0 2.69,0 2.69,0 0,2.8174 0,2.8174 0,2.8174 -1.42,0 -1.42,0 -1.42,0 0.57,2.1126 0.57,2.1126 0.57,2.1126 0,0 0,0 0,0 -0.29,0 -0.57,0.282 -0.57,0.564 0,0 0.14,0.141 0.14,0.141 0.71,3.24 0.71,3.24 0.71,3.24 0,0 0,0 0,0 0.14,0.986 1.13,1.831 2.12,1.831 1.13,0 1.98,-0.845 2.12,-1.972 0.71,-3.099 0.71,-3.099 0.71,-3.099 0,0 0,-0.141 0,-0.141 0,0 0,0 0,0 0,0 0,0 0,0 0,0 0,0 0,0 0,-0.282 -0.28,-0.564 -0.57,-0.564 0.57,-2.1126 0.57,-2.1126 0.57,-2.1126 -1.27,0 -1.27,0 -1.27,0 0,-2.8174 0,-2.8174 0,-2.8174 1.41,0 1.41,0 1.41,0 0.85,0.1409 1.7,0.8452 1.7,2.1131 0,9.1569 0,9.1569 0,9.1569 0,0.281 0,0.281 0,0.281 1.27,0 2.26,0.986 2.26,2.254 0,0.845 -0.42,1.55 -1.13,1.972 z M 720.61,17.41 c -0.99,0 -1.7,0.705 -1.7,1.55 0,0.845 0.71,1.55 1.7,1.55 0.85,0 1.56,-0.705 1.56,-1.55 0,-0.845 -0.71,-1.55 -1.56,-1.55 z m 5.94,-2.817 c -0.71,0 -1.41,0.564 -1.41,1.409 0,0.704 0.7,1.408 1.41,1.408 0.85,0 1.41,-0.704 1.41,-1.408 0,-0.845 -0.56,-1.409 -1.41,-1.409 z m 6.08,2.395 c -0.85,0 -1.55,0.704 -1.55,1.549 0,0.846 0.7,1.55 1.55,1.55 0.85,0 1.56,-0.704 1.56,-1.55 0,-0.845 -0.71,-1.549 -1.56,-1.549 z"
         style="fill:#ffffff;fill-opacity:1;fill-rule:evenodd;stroke:none"
         transform="matrix(1.3333333,0,0,-1.3333333,0,720)" />
    </g>
    <g
       id="g211">
      <path
         id="path212"
         d="m 726.84,9.577 c 0,0 0,0 0,0 0,0.143 -0.12,0.143 -0.24,0.143 -0.12,0 -0.12,0 -0.12,-0.143 0,0 0,0 0,0 0,-3.5769 0,-3.5769 0,-3.5769 0.36,0 0.36,0 0.36,0 z"
         style="fill:#ffffff;fill-opacity:1;fill-rule:evenodd;stroke:none"
         transform="matrix(1.3333333,0,0,-1.3333333,0,720)" />
    </g>
  </g>
</svg>
