<?xml version="1.0" encoding="UTF-8" standalone="no"?>
<!-- Created with Inkscape (http://www.inkscape.org/) -->

<svg
   version="1.1"
   id="svg1"
   width="19.039978"
   height="30.23999"
   viewBox="0 0 19.039978 30.23999"
   sodipodi:docname="cpv2020_pres_res_nay.pdf"
   xmlns:inkscape="http://www.inkscape.org/namespaces/inkscape"
   xmlns:sodipodi="http://sodipodi.sourceforge.net/DTD/sodipodi-0.dtd"
   xmlns="http://www.w3.org/2000/svg"
   xmlns:svg="http://www.w3.org/2000/svg">
  <defs
     id="defs1" />
  <sodipodi:namedview
     id="namedview1"
     pagecolor="#ffffff"
     bordercolor="#000000"
     borderopacity="0.25"
     inkscape:showpageshadow="2"
     inkscape:pageopacity="0.0"
     inkscape:pagecheckerboard="0"
     inkscape:deskcolor="#d1d1d1" />
  <g
     id="g1"
     inkscape:groupmode="layer"
     inkscape:label="3"
     transform="translate(-768.47998,-681.76001)">
    <g
       id="g198">
      <path
         id="path199"
         d="m 589.59,26.308 c -1.66,0 -1.66,0 -1.66,0 0,1.779 0,1.779 0,1.779 0,0.445 -0.3,0.593 -0.75,0.593 -7.36,0 -7.36,0 -7.36,0 -0.45,0 -0.75,-0.148 -0.75,-0.593 0,-1.779 0,-1.779 0,-1.779 -1.66,0 -1.66,0 -1.66,0 -0.6,0 -1.05,-0.444 -1.05,-0.889 0,-18.3813 0,-18.3813 0,-18.3813 0,-0.593 0.45,-1.0377 1.05,-1.0377 3.61,0 3.61,0 3.61,0 0,4.447 0,4.447 0,4.447 0,0.148 0.15,0.297 0.3,0.297 4.36,0 4.36,0 4.36,0 0.15,0 0.3,-0.149 0.3,-0.297 0,-4.447 0,-4.447 0,-4.447 3.61,0 3.61,0 3.61,0 0.6,0 1.05,0.4447 1.05,1.0377 0,18.3813 0,18.3813 0,18.3813 0,0.445 -0.45,0.889 -1.05,0.889 z m -9.32,-13.193 c 0,-0.148 -0.15,-0.296 -0.45,-0.296 -1.21,0 -1.21,0 -1.21,0 -0.15,0 -0.45,0.148 -0.45,0.296 0,1.186 0,1.186 0,1.186 0,0.297 0.3,0.445 0.45,0.445 1.21,0 1.21,0 1.21,0 0.3,0 0.45,-0.148 0.45,-0.445 z m 0,4.892 c 0,-0.148 -0.15,-0.445 -0.45,-0.445 -1.21,0 -1.21,0 -1.21,0 -0.15,0 -0.45,0.297 -0.45,0.445 0,1.186 0,1.186 0,1.186 0,0.296 0.3,0.445 0.45,0.445 1.21,0 1.21,0 1.21,0 0.3,0 0.45,-0.149 0.45,-0.445 z m 4.21,-4.892 c 0,-0.148 -0.15,-0.296 -0.3,-0.296 -1.36,0 -1.36,0 -1.36,0 -0.15,0 -0.3,0.148 -0.3,0.296 0,1.186 0,1.186 0,1.186 0,0.297 0.15,0.445 0.3,0.445 1.36,0 1.36,0 1.36,0 0.15,0 0.3,-0.148 0.3,-0.445 z m 0,4.892 c 0,-0.148 -0.15,-0.445 -0.3,-0.445 -1.36,0 -1.36,0 -1.36,0 -0.15,0 -0.3,0.297 -0.3,0.445 0,1.186 0,1.186 0,1.186 0,0.296 0.15,0.445 0.3,0.445 1.36,0 1.36,0 1.36,0 0.15,0 0.3,-0.149 0.3,-0.445 z m 1.5,6.226 c 0,-0.148 -0.15,-0.148 -0.3,-0.148 -1.5,0 -1.5,0 -1.5,0 0,-1.631 0,-1.631 0,-1.631 0,-0.148 -0.15,-0.148 -0.3,-0.148 -0.76,0 -0.76,0 -0.76,0 -0.15,0 -0.3,0 -0.3,0.148 0,1.631 0,1.631 0,1.631 -1.5,0 -1.5,0 -1.5,0 -0.3,0 -0.3,0 -0.3,0.148 0,0.889 0,0.889 0,0.889 0,0.149 0,0.297 0.3,0.297 1.5,0 1.5,0 1.5,0 0,1.482 0,1.482 0,1.482 0,0.148 0.15,0.297 0.3,0.297 0.76,0 0.76,0 0.76,0 0.15,0 0.3,-0.149 0.3,-0.297 0,-1.482 0,-1.482 0,-1.482 1.5,0 1.5,0 1.5,0 0.15,0 0.3,-0.148 0.3,-0.297 z m 2.86,-11.118 c 0,-0.148 -0.15,-0.296 -0.3,-0.296 -1.36,0 -1.36,0 -1.36,0 -0.15,0 -0.3,0.148 -0.3,0.296 0,1.186 0,1.186 0,1.186 0,0.297 0.15,0.445 0.3,0.445 1.36,0 1.36,0 1.36,0 0.15,0 0.3,-0.148 0.3,-0.445 z m 0,4.892 c 0,-0.148 -0.15,-0.445 -0.3,-0.445 -1.36,0 -1.36,0 -1.36,0 -0.15,0 -0.3,0.297 -0.3,0.445 0,1.186 0,1.186 0,1.186 0,0.296 0.15,0.445 0.3,0.445 1.36,0 1.36,0 1.36,0 0.15,0 0.3,-0.149 0.3,-0.445 z"
         style="fill:#ffffff;fill-opacity:1;fill-rule:evenodd;stroke:none"
         transform="matrix(1.3333333,0,0,-1.3333333,0,720)" />
    </g>
  </g>
</svg>
