<?xml version="1.0" encoding="UTF-8" standalone="no"?>
<!-- Created with Inkscape (http://www.inkscape.org/) -->

<svg
   version="1.1"
   id="svg1"
   width="21.507812"
   height="30.239868"
   viewBox="0 0 21.507812 30.239868"
   sodipodi:docname="cpv2020_pres_res_nay.pdf"
   xmlns:inkscape="http://www.inkscape.org/namespaces/inkscape"
   xmlns:sodipodi="http://sodipodi.sourceforge.net/DTD/sodipodi-0.dtd"
   xmlns="http://www.w3.org/2000/svg"
   xmlns:svg="http://www.w3.org/2000/svg">
  <defs
     id="defs1" />
  <sodipodi:namedview
     id="namedview1"
     pagecolor="#ffffff"
     bordercolor="#000000"
     borderopacity="0.25"
     inkscape:showpageshadow="2"
     inkscape:pageopacity="0.0"
     inkscape:pagecheckerboard="0"
     inkscape:deskcolor="#d1d1d1" />
  <g
     id="g1"
     inkscape:groupmode="layer"
     inkscape:label="3"
     transform="translate(-594.71997,-681.76001)">
    <g
       id="g237">
      <g
         id="g166">
        <path
           id="path167"
           d="m 449.88,26.46 c 0,1.226 0.99,2.22 2.22,2.22 1.23,0 2.22,-0.994 2.22,-2.22 0,-1.226 -0.99,-2.22 -2.22,-2.22 -1.23,0 -2.22,0.994 -2.22,2.22 z"
           style="fill:#ffffff;fill-opacity:1;fill-rule:evenodd;stroke:none"
           transform="matrix(1.3333333,0,0,-1.3333333,0,720)" />
      </g>
      <g
         id="g167">
        <path
           id="path168"
           d="m 457.31,14.095 c -1.71,0 -3,0 -3.57,0 -1.72,0 -1.72,0 -1.72,0 0,0 -2,0 -2,1.421 0,0 -0.14,5.401 -0.14,6.681 0,1.137 1.29,1.563 2.14,1.563 1.72,0 1.72,-2.558 1.72,-2.558 0,-1.422 0,-1.422 0,-1.422 1.14,0 2.71,0 3.29,0 1,0 1,-0.71 1,-0.71 0,0 0,0 0,0 0,0 0,-0.853 -1,-0.853 -0.58,0 -2.15,0 -3.29,0 0,-0.427 0,-0.427 0,-0.427 0,-1.421 0,-1.421 0,-1.421 0.43,0 1.57,0 2.86,0 1.14,0 2.28,-0.426 3,-1.706 0,0 2,-2.842 2.29,-3.269 0.71,-0.995 -0.15,-1.7054 -0.15,-1.7054 0,0 0,0 0,0 0,0 -1,-0.5685 -1.71,0.4264 -0.29,0.569 -0.86,1.279 -2.72,3.98"
           style="fill:#ffffff;fill-opacity:1;fill-rule:evenodd;stroke:none"
           transform="matrix(1.3333333,0,0,-1.3333333,0,720)" />
      </g>
      <g
         id="g168">
        <path
           id="path169"
           d="m 458.21,11.795 c -0.57,-2.403 -2.72,-4.2403 -5.3,-4.2403 -3,0 -5.44,2.4026 -5.44,5.3703 0,1.555 0.72,2.827 1.72,3.816 0,1.979 0,1.979 0,1.979 -1.86,-1.272 -3.15,-3.392 -3.15,-5.795 0,-3.8156 3.01,-6.9249 6.87,-6.9249 2.87,0 5.3,1.6959 6.45,4.2399 z"
           style="fill:#ffffff;fill-opacity:1;fill-rule:evenodd;stroke:none"
           transform="matrix(1.3333333,0,0,-1.3333333,0,720)" />
      </g>
    </g>
  </g>
</svg>
