<?xml version="1.0" encoding="UTF-8" standalone="no"?>
<!-- Created with Inkscape (http://www.inkscape.org/) -->

<svg
   version="1.1"
   id="svg1"
   width="31.679993"
   height="30.23999"
   viewBox="0 0 31.679993 30.23999"
   sodipodi:docname="cpv2020_pres_res_nay.pdf"
   xmlns:inkscape="http://www.inkscape.org/namespaces/inkscape"
   xmlns:sodipodi="http://sodipodi.sourceforge.net/DTD/sodipodi-0.dtd"
   xmlns="http://www.w3.org/2000/svg"
   xmlns:svg="http://www.w3.org/2000/svg">
  <defs
     id="defs1" />
  <sodipodi:namedview
     id="namedview1"
     pagecolor="#ffffff"
     bordercolor="#000000"
     borderopacity="0.25"
     inkscape:showpageshadow="2"
     inkscape:pageopacity="0.0"
     inkscape:pagecheckerboard="0"
     inkscape:deskcolor="#d1d1d1" />
  <g
     id="g1"
     inkscape:groupmode="layer"
     inkscape:label="3"
     transform="translate(-532.47998,-681.76001)">
    <g
       id="g236">
      <g
         id="g156">
        <path
           id="path157"
           d="m 411.29,9.2401 -8.09,8.0999 8.09,8.1 7.99,-8.1 z m -5.91,8.0999 5.91,-5.786 5.81,5.786 -5.81,5.93 z"
           style="fill:#ffffff;fill-opacity:1;fill-rule:evenodd;stroke:none"
           transform="matrix(1.3333333,0,0,-1.3333333,0,720)" />
      </g>
      <g
         id="g157">
        <path
           id="path158"
           d="m 411.29,20.28 2.71,-2.746 -2.71,-2.894 -2.81,2.894 z"
           style="fill:#ffffff;fill-opacity:1;fill-rule:evenodd;stroke:none"
           transform="matrix(1.3333333,0,0,-1.3333333,0,720)" />
      </g>
      <g
         id="g158">
        <path
           id="path159"
           d="m 406.71,24.84 1.17,-1.15 -1.17,-1.25 -1.11,1.25 z"
           style="fill:#ffffff;fill-opacity:1;fill-rule:evenodd;stroke:none"
           transform="matrix(1.3333333,0,0,-1.3333333,0,720)" />
      </g>
      <g
         id="g159">
        <path
           id="path160"
           d="m 406.71,12.36 1.17,-1.067 -1.17,-1.213 -1.11,1.213 z"
           style="fill:#ffffff;fill-opacity:1;fill-rule:evenodd;stroke:none"
           transform="matrix(1.3333333,0,0,-1.3333333,0,720)" />
      </g>
      <g
         id="g160">
        <path
           id="path161"
           d="m 411.34,28.68 1.1,-1.056 -1.1,-1.104 -1.06,1.104 z"
           style="fill:#ffffff;fill-opacity:1;fill-rule:evenodd;stroke:none"
           transform="matrix(1.3333333,0,0,-1.3333333,0,720)" />
      </g>
      <g
         id="g161">
        <path
           id="path162"
           d="m 411.34,8.4 1.1,-1.3 -1.1,-1.1 -1.06,1.1 z"
           style="fill:#ffffff;fill-opacity:1;fill-rule:evenodd;stroke:none"
           transform="matrix(1.3333333,0,0,-1.3333333,0,720)" />
      </g>
      <g
         id="g162">
        <path
           id="path163"
           d="m 403.44,18.76 -1.42,1.52 -2.66,-2.746 2.66,-2.894 1.42,1.52 -1.28,1.374 z"
           style="fill:#ffffff;fill-opacity:1;fill-rule:evenodd;stroke:none"
           transform="matrix(1.3333333,0,0,-1.3333333,0,720)" />
      </g>
      <g
         id="g163">
        <path
           id="path164"
           d="m 419.04,18.76 1.42,1.52 2.66,-2.746 -2.66,-2.894 -1.42,1.52 1.28,1.374 z"
           style="fill:#ffffff;fill-opacity:1;fill-rule:evenodd;stroke:none"
           transform="matrix(1.3333333,0,0,-1.3333333,0,720)" />
      </g>
      <g
         id="g164">
        <path
           id="path165"
           d="m 415.9,24.84 1.1,-1.15 -1.1,-1.25 -1.06,1.25 z"
           style="fill:#ffffff;fill-opacity:1;fill-rule:evenodd;stroke:none"
           transform="matrix(1.3333333,0,0,-1.3333333,0,720)" />
      </g>
      <g
         id="g165">
        <path
           id="path166"
           d="m 415.9,12.36 1.1,-1.067 -1.1,-1.213 -1.06,1.213 z"
           style="fill:#ffffff;fill-opacity:1;fill-rule:evenodd;stroke:none"
           transform="matrix(1.3333333,0,0,-1.3333333,0,720)" />
      </g>
    </g>
  </g>
</svg>
