<?xml version="1.0" encoding="UTF-8" standalone="no"?>
<!-- Created with Inkscape (http://www.inkscape.org/) -->

<svg
   version="1.1"
   id="svg1"
   width="12.480011"
   height="30.239868"
   viewBox="0 0 12.480011 30.239868"
   sodipodi:docname="cpv2020_pres_res_nay.pdf"
   xmlns:inkscape="http://www.inkscape.org/namespaces/inkscape"
   xmlns:sodipodi="http://sodipodi.sourceforge.net/DTD/sodipodi-0.dtd"
   xmlns="http://www.w3.org/2000/svg"
   xmlns:svg="http://www.w3.org/2000/svg">
  <defs
     id="defs1" />
  <sodipodi:namedview
     id="namedview1"
     pagecolor="#ffffff"
     bordercolor="#000000"
     borderopacity="0.25"
     inkscape:showpageshadow="2"
     inkscape:pageopacity="0.0"
     inkscape:pagecheckerboard="0"
     inkscape:deskcolor="#d1d1d1" />
  <g
     id="g1"
     inkscape:groupmode="layer"
     inkscape:label="3"
     transform="translate(-355.19998,-681.76001)">
    <g
       id="g133">
      <path
         id="path134"
         d="m 275.76,20.34 c 0,0.63 -0.54,1.14 -1.2,1.14 -0.66,0 -1.2,-0.51 -1.2,-1.14 0,-0.63 0.54,-1.14 1.2,-1.14 0.66,0 1.2,0.51 1.2,1.14 z"
         style="fill:#ffffff;fill-opacity:1;fill-rule:evenodd;stroke:none"
         transform="matrix(1.3333333,0,0,-1.3333333,0,720)" />
    </g>
    <g
       id="g134">
      <path
         id="path135"
         d="m 273.24,26.34 c 0,1.292 -1.07,2.34 -2.4,2.34 -1.33,0 -2.4,-1.048 -2.4,-2.34 0,-1.292 1.07,-2.34 2.4,-2.34 1.33,0 2.4,1.048 2.4,2.34 z"
         style="fill:#ffffff;fill-opacity:1;fill-rule:evenodd;stroke:none"
         transform="matrix(1.3333333,0,0,-1.3333333,0,720)" />
    </g>
    <g
       id="g135">
      <path
         id="path136"
         d="m 268.68,17.88 c 0,0.464 -0.38,0.84 -0.84,0.84 -0.46,0 -0.84,-0.376 -0.84,-0.84 0,-0.464 0.38,-0.84 0.84,-0.84 0.46,0 0.84,0.376 0.84,0.84 z"
         style="fill:#ffffff;fill-opacity:1;fill-rule:evenodd;stroke:none"
         transform="matrix(1.3333333,0,0,-1.3333333,0,720)" />
    </g>
    <g
       id="g136">
      <path
         id="path137"
         d="m 271.35,17.949 c 0,0 0,0 0,0 0,0 0,0 0,0 0.13,0 0.13,0 0.13,0 0.66,0.377 1.45,0.628 2.24,1.131 0.26,-0.126 0.52,-0.251 0.78,-0.251 0.13,0 0.4,0.125 0.53,0.125 0.13,-0.125 0.13,-0.251 0.13,-0.503 0,-0.125 -0.13,-0.377 -0.13,-0.502 0,0 0,0 0,0 0,0 0,0 -0.13,0 -0.66,-0.755 -2.76,-1.509 -3.02,-1.509 0,0 0,0 0,0 0,0 -0.13,0 -0.13,0 -0.4,0 -0.79,0.377 -0.79,0.754 0,0.377 0.13,0.629 0.39,0.755 z"
         style="fill:#ffffff;fill-opacity:1;fill-rule:evenodd;stroke:none"
         transform="matrix(1.3333333,0,0,-1.3333333,0,720)" />
    </g>
    <g
       id="g137">
      <path
         id="path138"
         d="m 267.46,15.777 c 0.26,-0.127 0.52,-0.127 0.79,-0.127 0.13,0 0.39,0 0.39,0 0,0 0,0 0,0 0.14,0 0.14,0 0.14,0 0,0 0.13,0 0.13,0 2.24,0.635 2.24,0.635 2.24,0.635 0.27,-0.127 0.4,-0.254 0.66,-0.254 0,0 0.13,0 0.13,0.127 0,-0.127 0,-0.127 0,-0.127 0.27,0 1.19,0.254 2.25,0.889 1.45,-5.46 1.45,-5.46 1.45,-5.46 -2.24,0 -2.24,0 -2.24,0 0,-4.4441 0,-4.4441 0,-4.4441 0,0 0,0 0,0 0,0 0,0 0,0 0,-0.508 -0.53,-1.0158 -1.06,-1.0158 -0.66,0 -1.06,0.5078 -1.06,1.0158 0,0 0,0 0,0 0,0 0,0 0,0 0,4.4441 0,4.4441 0,4.4441 -0.52,0 -0.52,0 -0.52,0 0,-4.4441 0,-4.4441 0,-4.4441 0,-0.508 -0.53,-1.0158 -1.19,-1.0158 -0.53,0 -1.06,0.5078 -1.06,1.0158 0,4.4441 0,4.4441 0,4.4441 -2.11,0 -2.11,0 -2.11,0 z"
         style="fill:#ffffff;fill-opacity:1;fill-rule:evenodd;stroke:none"
         transform="matrix(1.3333333,0,0,-1.3333333,0,720)" />
    </g>
    <g
       id="g138">
      <path
         id="path139"
         d="m 267.78,16.827 c 0.65,0 1.17,0.496 1.17,1.115 0,0.372 -0.13,0.619 -0.52,0.867 2.86,0.867 2.86,0.867 2.86,0.867 0,0.124 0,0.124 0,0.124 0,0 0,0 0,0 0,0 0,0 0,0 0.26,0 0.39,0 0.52,0 0.65,0 1.17,-0.248 1.43,-0.743 -0.78,-0.372 -1.04,-0.496 -1.82,-0.743 0,-0.124 -0.13,-0.124 -0.13,-0.124 0,0 0,0 0,0 0,0 0,0 0,0 -0.39,-0.124 -0.65,-0.496 -0.65,-0.991 0,-0.248 0.13,-0.496 0.26,-0.62 -2.08,-0.495 -2.08,-0.495 -2.08,-0.495 0,0 -0.13,0 -0.13,-0.124 0,0 0,0 0,0 0,0 0,0 0,0 -0.13,0 -0.26,0 -0.26,0 -0.78,0 -1.3,0.496 -1.43,1.115 0.26,-0.124 0.52,-0.248 0.78,-0.248 z"
         style="fill:#ffffff;fill-opacity:1;fill-rule:evenodd;stroke:none"
         transform="matrix(1.3333333,0,0,-1.3333333,0,720)" />
    </g>
    <g
       id="g139">
      <path
         id="path140"
         d="m 267.76,18.967 c -0.13,0 -0.39,0 -0.52,-0.127 0.26,1.647 0.26,1.647 0.26,1.647 0.26,1.646 1.68,2.913 3.49,2.913 1.29,0 2.32,-0.633 2.97,-1.647 -0.65,-0.253 -1.03,-0.76 -1.03,-1.393 0,-0.253 0.13,-0.507 0.25,-0.76 -0.38,0.38 -0.9,0.633 -1.42,0.633 -0.13,0 -0.38,-0.126 -0.64,-0.126 0,0 0,0 0,0 0,0 0,0 0,0 0,0 0,0 0,0 -3.1,-1.14 -3.1,-1.14 -3.1,-1.14 0,0 -0.13,0 -0.26,0 z"
         style="fill:#ffffff;fill-opacity:1;fill-rule:evenodd;stroke:none"
         transform="matrix(1.3333333,0,0,-1.3333333,0,720)" />
    </g>
  </g>
</svg>
