<?xml version="1.0" encoding="UTF-8" standalone="no"?>
<!-- Created with Inkscape (http://www.inkscape.org/) -->

<svg
   version="1.1"
   id="svg1"
   width="42.559998"
   height="30.23999"
   viewBox="0 0 42.559998 30.23999"
   sodipodi:docname="cpv2020_pres_res_nay.pdf"
   xmlns:inkscape="http://www.inkscape.org/namespaces/inkscape"
   xmlns:sodipodi="http://sodipodi.sourceforge.net/DTD/sodipodi-0.dtd"
   xmlns="http://www.w3.org/2000/svg"
   xmlns:svg="http://www.w3.org/2000/svg">
  <defs
     id="defs1" />
  <sodipodi:namedview
     id="namedview1"
     pagecolor="#ffffff"
     bordercolor="#000000"
     borderopacity="0.25"
     inkscape:showpageshadow="2"
     inkscape:pageopacity="0.0"
     inkscape:pagecheckerboard="0"
     inkscape:deskcolor="#d1d1d1" />
  <g
     id="g1"
     inkscape:groupmode="layer"
     inkscape:label="3"
     transform="translate(-459.51999,-681.76001)">
    <g
       id="g150">
      <path
         id="path151"
         d="m 376.32,16.44 c -2.8,0 -2.8,0 -2.8,0 -0.12,0 -0.36,-0.122 -0.48,-0.243 -0.73,-1.218 -0.73,-1.218 -0.73,-1.218 -0.13,-0.122 -0.25,-0.365 -0.25,-0.609 -0.12,-0.486 -0.48,-1.582 -2.06,-2.191 0,-1.582 0,-1.582 0,-1.582 0,-0.244 -0.25,-0.487 -0.49,-0.487 -2.43,0 -2.43,0 -2.43,0 0,-0.8526 0,-0.8526 0,-0.8526 1.94,-1.2174 1.94,-1.2174 1.94,-1.2174 0.13,0 0.37,0 0.49,0.1218 0.73,0.6087 0.73,0.6087 0.73,0.6087 0.12,0.1217 0.36,0.2435 0.49,0.2435 1.7,0 1.7,0 1.7,0 0.12,0 0.24,0.1217 0.12,0.2434 -0.37,0.6087 -0.37,0.6087 -0.37,0.6087 0,0.2439 0,0.3649 0.13,0.4869 3.52,3.531 3.52,3.531 3.52,3.531 0.12,0.121 0.24,0.365 0.24,0.486 0.49,1.705 0.49,1.705 0.49,1.705 0,0.243 -0.12,0.365 -0.24,0.365 z"
         style="fill:#ffffff;fill-opacity:1;fill-rule:evenodd;stroke:none"
         transform="matrix(1.3333333,0,0,-1.3333333,0,720)" />
    </g>
    <g
       id="g151">
      <path
         id="path152"
         d="m 363.36,13.499 c 0,6.558 0,6.558 0,6.558 0,0.122 0,0.365 0.12,0.486 -3.04,4.008 -3.04,4.008 -3.04,4.008 -0.12,0.121 -0.24,0.364 -0.48,0.364 -1.59,0 -1.59,0 -1.59,0 -0.24,0 -0.36,0 -0.48,0.122 -1.95,2.307 -1.95,2.307 -1.95,2.307 -0.12,0.122 -0.24,0.243 -0.48,0.243 -2.19,0 -2.19,0 -2.19,0 -0.12,0 -0.49,-0.243 -0.49,-0.364 0,-0.608 0,-0.608 0,-0.608 0,-0.121 0.13,-0.121 -0.12,-0.121 -1.58,0 -1.58,0 -1.58,0 -0.24,0 -0.36,0 -0.48,0.121 -2.44,1.822 -2.44,1.822 -2.44,1.822 -0.12,0.122 -0.36,0.243 -0.48,0.243 -2.8,0 -2.8,0 -2.8,0 -0.12,0 -0.24,-0.121 -0.24,-0.364 1.58,-5.708 1.58,-5.708 1.58,-5.708 0,-0.122 -0.12,-0.365 -0.24,-0.365 -1.1,0 -1.1,0 -1.1,0 -0.12,0 -0.24,0 -0.12,-0.121 1.82,-1.7 1.82,-1.7 1.82,-1.7 0.13,-0.122 0.37,-0.243 0.37,-0.365 3.16,-5.222 3.16,-5.222 3.16,-5.222 0,-0.121 0.24,-0.121 0.36,-0.121 0.61,0.364 0.61,0.364 0.61,0.364 0.12,0.122 0.25,0.243 0.12,0.364 -3.64,9.109 -3.64,9.109 -3.64,9.109 -0.12,0.121 0,0.364 0.12,0.364 0.61,0 0.61,0 0.61,0 0.12,0 0.24,-0.243 0.36,-0.364 5.35,-7.894 5.35,-7.894 5.35,-7.894 0,-0.122 0.12,-0.486 0.24,-0.607 0.97,-3.401 0.97,-3.401 0.97,-3.401 0,-0.121 0.13,-0.364 0.25,-0.364 5.1,-3.6435 5.1,-3.6435 5.1,-3.6435 0.12,-0.1215 0.37,-0.1215 0.49,-0.1215 2.31,0.4858 2.31,0.4858 2.31,0.4858 0,4.3722 0,4.3722 0,4.3722 z"
         style="fill:#ffffff;fill-opacity:1;fill-rule:evenodd;stroke:none"
         transform="matrix(1.3333333,0,0,-1.3333333,0,720)" />
    </g>
    <g
       id="g152">
      <path
         id="path153"
         d="m 363.6,24.36 c 0,1.127 0.91,2.04 2.04,2.04 1.13,0 2.04,-0.913 2.04,-2.04 0,-1.127 -0.91,-2.04 -2.04,-2.04 -1.13,0 -2.04,0.913 -2.04,2.04 z"
         style="fill:#ffffff;fill-opacity:1;fill-rule:evenodd;stroke:none"
         transform="matrix(1.3333333,0,0,-1.3333333,0,720)" />
    </g>
    <g
       id="g153">
      <path
         id="path154"
         d="m 368.64,13.52 c 0,0.74 -0.72,1.48 -1.44,1.48 -0.84,0 -1.44,-0.74 -1.44,-1.48 -0.84,0 -0.84,0 -0.84,0 0,-2.96 0,-2.96 0,-2.96 4.56,0 4.56,0 4.56,0 0,2.96 0,2.96 0,2.96 z m -1.44,1.11 c 0.6,0 1.08,-0.493 1.08,-1.11 -2.28,0 -2.28,0 -2.28,0 0,0.617 0.6,1.11 1.2,1.11 z"
         style="fill:#ffffff;fill-opacity:1;fill-rule:evenodd;stroke:none"
         transform="matrix(1.3333333,0,0,-1.3333333,0,720)" />
    </g>
    <g
       id="g154">
      <path
         id="path155"
         d="m 364.56,13.798 c 0.84,0 0.84,0 0.84,0 0.24,0.853 0.96,1.462 1.8,1.462 0.12,0 0.12,0 0.24,0 0,2.803 0,2.803 0,2.803 0,1.949 0,1.949 0,1.949 0,0.975 -0.72,1.828 -1.68,1.828 -0.96,0 -1.8,-0.731 -1.8,-1.706 0,-6.579 0,-6.579 0,-6.579 0,-0.122 0,-0.122 0,-0.122 0,-6.0927 0,-6.0927 0,-6.0927 0,-0.731 0.6,-1.3403 1.32,-1.3403 0.72,0 1.32,0.6093 1.32,1.3403 0,3.0457 0,3.0457 0,3.0457 -2.04,0 -2.04,0 -2.04,0 z"
         style="fill:#ffffff;fill-opacity:1;fill-rule:evenodd;stroke:none"
         transform="matrix(1.3333333,0,0,-1.3333333,0,720)" />
    </g>
    <g
       id="g155">
      <path
         id="path156"
         d="m 366.36,13.92 c 0.12,-0.12 0.12,-0.12 0.24,-0.12 0.48,0 0.72,0.24 0.84,0.48 0,0 -0.72,0.24 -1.08,-0.36 z"
         style="fill:#ffffff;fill-opacity:1;fill-rule:evenodd;stroke:none"
         transform="matrix(1.3333333,0,0,-1.3333333,0,720)" />
    </g>
  </g>
</svg>
