<?xml version="1.0" encoding="UTF-8" standalone="no"?>
<!-- Created with Inkscape (http://www.inkscape.org/) -->

<svg
   version="1.1"
   id="svg1"
   width="31.040009"
   height="30.23999"
   viewBox="0 0 31.040009 30.23999"
   sodipodi:docname="cpv2020_pres_res_nay.pdf"
   xmlns:inkscape="http://www.inkscape.org/namespaces/inkscape"
   xmlns:sodipodi="http://sodipodi.sourceforge.net/DTD/sodipodi-0.dtd"
   xmlns="http://www.w3.org/2000/svg"
   xmlns:svg="http://www.w3.org/2000/svg">
  <defs
     id="defs1" />
  <sodipodi:namedview
     id="namedview1"
     pagecolor="#ffffff"
     bordercolor="#000000"
     borderopacity="0.25"
     inkscape:showpageshadow="2"
     inkscape:pageopacity="0.0"
     inkscape:pagecheckerboard="0"
     inkscape:deskcolor="#d1d1d1" />
  <g
     id="g1"
     inkscape:groupmode="layer"
     inkscape:label="3"
     transform="translate(-398.07999,-681.76001)">
    <g
       id="g140">
      <path
         id="path141"
         d="m 321.61,6.5635 c -1.46,0 -1.46,0 -1.46,0 0,9.8045 0,9.8045 0,9.8045 0,1.352 -1.24,2.592 -2.7,2.592 0,0 0,0 0,0 -2.14,0 -2.14,0 -2.14,0 0,0 0,0 0,0 -1.35,0 -2.59,-1.24 -2.59,-2.592 0,-9.8045 0,-9.8045 0,-9.8045 -1.46,0 -1.46,0 -1.46,0 0,0 0,0 0,0 -0.23,0 -0.34,-0.1127 -0.34,-0.2254 0,-0.2254 0.11,-0.3381 0.34,-0.3381 0,0 0,0 0,0 1.46,0 1.46,0 1.46,0 7.43,0 7.43,0 7.43,0 1.46,0 1.46,0 1.46,0 0,0 0,0 0,0 0.12,0 0.23,0.1127 0.23,0.3381 0,0.1127 -0.11,0.2254 -0.23,0.2254 z"
         style="fill:#ffffff;fill-opacity:1;fill-rule:evenodd;stroke:none"
         transform="matrix(1.3333333,0,0,-1.3333333,0,720)" />
    </g>
    <g
       id="g141">
      <path
         id="path142"
         d="m 308.86,20.52 0.26,0.36 h -0.48 z"
         style="fill:#ffffff;fill-opacity:1;fill-rule:evenodd;stroke:none"
         transform="matrix(1.3333333,0,0,-1.3333333,0,720)" />
    </g>
    <g
       id="g142">
      <path
         id="path143"
         d="m 308.64,19.08 h 0.48 l -0.26,0.36 z"
         style="fill:#ffffff;fill-opacity:1;fill-rule:evenodd;stroke:none"
         transform="matrix(1.3333333,0,0,-1.3333333,0,720)" />
    </g>
    <g
       id="g143">
      <path
         id="path144"
         d="m 310.22,18.24 0.22,0.24 h -0.48 z"
         style="fill:#ffffff;fill-opacity:1;fill-rule:evenodd;stroke:none"
         transform="matrix(1.3333333,0,0,-1.3333333,0,720)" />
    </g>
    <g
       id="g144">
      <path
         id="path145"
         d="m 310.22,21.72 -0.26,-0.36 h 0.48 z"
         style="fill:#ffffff;fill-opacity:1;fill-rule:evenodd;stroke:none"
         transform="matrix(1.3333333,0,0,-1.3333333,0,720)" />
    </g>
    <g
       id="g145">
      <path
         id="path146"
         d="m 311.52,20.52 0.24,0.36 h -0.48 z"
         style="fill:#ffffff;fill-opacity:1;fill-rule:evenodd;stroke:none"
         transform="matrix(1.3333333,0,0,-1.3333333,0,720)" />
    </g>
    <g
       id="g146">
      <path
         id="path147"
         d="m 309.69,20.88 -0.57,-0.9 0.57,-0.9 h 1.14 l 0.45,0.9 -0.45,0.9 z"
         style="fill:#ffffff;fill-opacity:1;fill-rule:evenodd;stroke:none"
         transform="matrix(1.3333333,0,0,-1.3333333,0,720)" />
    </g>
    <g
       id="g147">
      <path
         id="path148"
         d="m 311.28,19.08 h 0.48 l -0.24,0.36 z"
         style="fill:#ffffff;fill-opacity:1;fill-rule:evenodd;stroke:none"
         transform="matrix(1.3333333,0,0,-1.3333333,0,720)" />
    </g>
    <g
       id="g148">
      <path
         id="path149"
         d="m 312.12,16.329 c 0,1.24 0.67,2.254 1.8,2.818 0,2.028 0,2.028 0,2.028 0,1.465 -1.24,2.705 -2.7,2.705 0,0 0,0 0,0 -2.15,0 -2.15,0 -2.15,0 0,0 0,0 0,0 -1.46,0 -2.59,-1.24 -2.59,-2.705 0,-9.691 0,-9.691 0,-9.691 -1.57,0 -1.57,0 -1.57,0 0,0 0,0 0,0 -0.12,0 -0.23,-0.113 -0.23,-0.339 0,-0.112 0.11,-0.225 0.23,-0.225 0,0 0,0 0,0 1.57,0 1.57,0 1.57,0 5.64,0 5.64,0 5.64,0 z m -1.58,1.24 c 0,0 -0.11,0 -0.11,0 0,0 0,0 0,0 0,0 0,0 0,0 0,-0.113 -0.12,-0.113 -0.23,-0.113 -0.11,0 -0.22,0 -0.34,0.113 0,0 0,0 0,0 0,0 0,0 0,0 0,0 0,0 0,0 -0.56,0.902 -0.56,0.902 -0.56,0.902 -1.01,0 -1.01,0 -1.01,0 -0.23,0 -0.34,0.225 -0.34,0.338 0,0.112 0,0.225 0,0.225 0,0 0,0 0,0 0.56,0.902 0.56,0.902 0.56,0.902 -0.56,0.901 -0.56,0.901 -0.56,0.901 0,0 0,0 0,0 0,0.113 0,0.113 0,0.226 0,0.112 0.11,0.338 0.34,0.338 1.01,0 1.01,0 1.01,0 0.56,0.901 0.56,0.901 0.56,0.901 0,0 0,0 0,0 0,0 0,0 0,0 0,0 0,0 0,0 0.12,0.113 0.23,0.226 0.34,0.226 0.11,0 0.23,-0.113 0.23,-0.226 0,0 0,0 0,0 0,0 0,0 0,0 0,0 0.11,0 0.11,0 0.45,-0.901 0.45,-0.901 0.45,-0.901 1.13,0 1.13,0 1.13,0 0.11,0 0.34,-0.226 0.34,-0.338 0,-0.113 -0.12,-0.226 -0.12,-0.226 0,0 0,0 0,0 -0.45,-0.901 -0.45,-0.901 -0.45,-0.901 0.45,-0.902 0.45,-0.902 0.45,-0.902 0,0 0,0 0,0 0.12,-0.113 0.12,-0.113 0.12,-0.225 0,-0.113 -0.23,-0.338 -0.34,-0.338 -1.13,0 -1.13,0 -1.13,0 z"
         style="fill:#ffffff;fill-opacity:1;fill-rule:evenodd;stroke:none"
         transform="matrix(1.3333333,0,0,-1.3333333,0,720)" />
    </g>
    <g
       id="g149">
      <path
         id="path150"
         d="m 305.99,21.199 c 0,1.228 0.68,2.345 1.69,2.903 0,2.01 0,2.01 0,2.01 0,1.451 -1.13,2.568 -2.59,2.568 -2.14,0 -2.14,0 -2.14,0 0,0 0,0 0,0 -1.46,0 -2.59,-1.117 -2.59,-2.568 0,-9.714 0,-9.714 0,-9.714 -1.57,0 -1.57,0 -1.57,0 0,0 0,0 0,0 -0.12,0 -0.23,-0.111 -0.23,-0.223 0,-0.223 0.11,-0.335 0.23,-0.335 0,0 0,0 0,0 1.57,0 1.57,0 1.57,0 5.63,0 5.63,0 5.63,0 z m -1.91,0.559 c -0.23,0 -0.45,0.223 -0.45,0.446 0,2.457 0,2.457 0,2.457 -1.69,0 -1.69,0 -1.69,0 -0.23,0 -0.34,0.223 -0.34,0.446 0,0.223 0.11,0.335 0.34,0.335 1.69,0 1.69,0 1.69,0 0,1.563 0,1.563 0,1.563 0,0.224 0.22,0.335 0.45,0.335 0.22,0 0.33,-0.111 0.33,-0.335 0,-1.563 0,-1.563 0,-1.563 1.69,0 1.69,0 1.69,0 0.23,0 0.45,-0.112 0.45,-0.335 0,-0.223 -0.22,-0.446 -0.45,-0.446 -1.69,0 -1.69,0 -1.69,0 0,-2.457 0,-2.457 0,-2.457 0,-0.223 -0.11,-0.446 -0.33,-0.446 z"
         style="fill:#ffffff;fill-opacity:1;fill-rule:evenodd;stroke:none"
         transform="matrix(1.3333333,0,0,-1.3333333,0,720)" />
    </g>
  </g>
</svg>
