<?xml version="1.0" encoding="UTF-8" standalone="no"?>
<!-- Created with Inkscape (http://www.inkscape.org/) -->

<svg
   version="1.1"
   id="svg1"
   width="30.399963"
   height="26.399902"
   viewBox="0 0 30.399963 26.399902"
   sodipodi:docname="cpv2020_pres_res_nay.pdf"
   xmlns:inkscape="http://www.inkscape.org/namespaces/inkscape"
   xmlns:sodipodi="http://sodipodi.sourceforge.net/DTD/sodipodi-0.dtd"
   xmlns="http://www.w3.org/2000/svg"
   xmlns:svg="http://www.w3.org/2000/svg">
  <defs
     id="defs1" />
  <sodipodi:namedview
     id="namedview1"
     pagecolor="#ffffff"
     bordercolor="#000000"
     borderopacity="0.25"
     inkscape:showpageshadow="2"
     inkscape:pageopacity="0.0"
     inkscape:pagecheckerboard="0"
     inkscape:deskcolor="#d1d1d1" />
  <g
     id="g1"
     inkscape:groupmode="layer"
     inkscape:label="3"
     transform="translate(-1012.8,-683.67999)">
    <g
       id="g212">
      <path
         id="path213"
         d="M 781.36,21.182 C 771,27.24 771,27.24 771,27.24 c 0,0 0,0 0,0 0,0 0,0 0,0 0,0 0,0 0,0 0,0 0,0 0,0 0,0 0,0 0,0 -10.36,-6.058 -10.36,-6.058 -10.36,-6.058 -0.6,-0.296 -1.04,-1.034 -1.04,-1.626 0,-1.182 0.89,-1.92 1.92,-2.068 0,-0.296 0,-0.296 0,-0.296 0,-7.831 0,-7.831 0,-7.831 0,-1.0344 0.89,-1.7732 1.63,-1.9209 0.15,0 0.15,0 0.15,0 0.15,0 0.15,0 0.3,0 5.18,0 5.18,0 5.18,0 0,6.3539 0,6.3539 0,6.3539 0,1.33 1.04,2.216 2.22,2.216 1.18,0 2.22,-0.886 2.22,-2.216 0,-6.3539 0,-6.3539 0,-6.3539 5.18,0 5.18,0 5.18,0 0.15,0 0.15,0 0.3,0 0.15,0 0.15,0 0.15,0 0.74,0.1477 1.63,0.8865 1.63,1.9209 0,7.831 0,7.831 0,7.831 0,0.296 0,0.296 0,0.296 1.03,0.148 1.92,0.886 1.92,2.068 0,0.592 -0.44,1.33 -1.04,1.626 z"
         style="fill:#ffffff;fill-opacity:1;fill-rule:evenodd;stroke:none"
         transform="matrix(1.3333333,0,0,-1.3333333,0,720)" />
    </g>
  </g>
</svg>
